<svg width="100" height="87" viewBox="0 0 100 87" fill="none" xmlns="http://www.w3.org/2000/svg">
<g clip-path="url(#clip0_539_4)">
<path d="M3.125 55.875C3.9538 55.875 4.74866 56.2042 5.33471 56.7903C5.92076 57.3763 6.25 58.1712 6.25 59V74.625C6.25 76.2826 6.90848 77.8723 8.08058 79.0444C9.25268 80.2165 10.8424 80.875 12.5 80.875H87.5C89.1576 80.875 90.7473 80.2165 91.9194 79.0444C93.0915 77.8723 93.75 76.2826 93.75 74.625V59C93.75 58.1712 94.0792 57.3763 94.6653 56.7903C95.2513 56.2042 96.0462 55.875 96.875 55.875C97.7038 55.875 98.4987 56.2042 99.0847 56.7903C99.6708 57.3763 100 58.1712 100 59V74.625C100 77.9402 98.683 81.1196 96.3388 83.4638C93.9946 85.808 90.8152 87.125 87.5 87.125H12.5C9.18479 87.125 6.00537 85.808 3.66117 83.4638C1.31696 81.1196 0 77.9402 0 74.625V59C0 58.1712 0.32924 57.3763 0.915291 56.7903C1.50134 56.2042 2.2962 55.875 3.125 55.875Z" fill="#E21E1A"/>
<path d="M47.7875 68.0875C48.0778 68.3785 48.4226 68.6094 48.8023 68.767C49.1819 68.9245 49.589 69.0056 50 69.0056C50.411 69.0056 50.8181 68.9245 51.1977 68.767C51.5774 68.6094 51.9222 68.3785 52.2125 68.0875L70.9625 49.3375C71.5493 48.7507 71.8789 47.9548 71.8789 47.125C71.8789 46.2952 71.5493 45.4993 70.9625 44.9125C70.3757 44.3257 69.5799 43.9961 68.75 43.9961C67.9202 43.9961 67.1243 44.3257 66.5375 44.9125L53.125 58.3313V3.375C53.125 2.5462 52.7958 1.75134 52.2097 1.16529C51.6237 0.57924 50.8288 0.25 50 0.25C49.1712 0.25 48.3763 0.57924 47.7903 1.16529C47.2042 1.75134 46.875 2.5462 46.875 3.375V58.3313L33.4625 44.9125C32.8757 44.3257 32.0798 43.9961 31.25 43.9961C30.4202 43.9961 29.6243 44.3257 29.0375 44.9125C28.4507 45.4993 28.1211 46.2952 28.1211 47.125C28.1211 47.9548 28.4507 48.7507 29.0375 49.3375L47.7875 68.0875Z" fill="#E21E1A"/>
</g>
<defs>
<clipPath id="clip0_539_4">
<rect width="100" height="87" fill="white"/>
</clipPath>
</defs>
</svg>
